# AST/ASF file generated using VICON BodyLanguage
# -----------------------------------------------
:version 1.10
:name VICON
:units
  mass 1.0
  length 0.45
  angle deg
:documentation
   .ast/.asf automatically generated from VICON data using
   VICON BodyBuilder and BodyLanguage model FoxedUp or BRILLIANT.MOD
:root
   order TX TY TZ RX RY RZ
   axis XYZ
   position 0 0 0  
   orientation 0 0 0 
:bonedata
  begin
     id 1 
     name lhipjoint
     direction 0.655637 -0.713449 0.247245 
     length 2.52691 
     axis 0 0 0  XYZ
  end
  begin
     id 2 
     name lfemur
     direction 0.34202 -0.939693 0  
     length 7.59371  
     axis 0 0 20  XYZ
    dof rx ry rz
    limits (-160.0 20.0)
           (-70.0 70.0)
           (-60.0 70.0)
  end
  begin
     id 3 
     name ltibia
     direction 0.34202 -0.939693 0   
     length 7.28717   
     axis 0 0 20   XYZ
    dof rx
    limits (-10.0 170.0)
  end
  begin
     id 4 
     name lfoot
     direction 0.0886837 -0.243657 0.965798   
     length 2.2218   
     axis -90 7.62852e-016 20   XYZ
    dof rx rz
    limits (-45.0 90.0)
           (-70.0 20.0)
  end
  begin
     id 5 
     name ltoes
     direction 1.53547e-011 -4.22004e-011 1   
     length 1.11249   
     axis -90 7.62852e-016 20   XYZ
    dof rx
    limits (-90.0 20.0)
  end
  begin
     id 6 
     name rhipjoint
     direction -0.645062 -0.722004 0.250209   
     length 2.49697  
     axis 0 0 0  XYZ 
  end
  begin
     id 7 
     name rfemur
     direction -0.34202 -0.939693 0   
     length 7.58734   
     axis 0 0 -20   XYZ
    dof rx ry rz
    limits (-160.0 20.0)
           (-70.0 70.0)
           (-70.0 60.0)
  end
  begin
     id 8 
     name rtibia
     direction -0.34202 -0.939693 0   
     length 7.21538   
     axis 0 0 -20   XYZ
    dof rx
    limits (-10.0 170.0)
 end
 begin
     id 9 
     name rfoot
     direction -0.102907 -0.282735 0.953662   
     length 2.23735  
     axis -90 -7.62852e-016 -20   XYZ
    dof rx rz
    limits (-45.0 90.0)
           (-20.0 70.0)
  end
  begin
     id 10 
     name rtoes
     direction -1.5354e-011 -4.21751e-011 1   
     length 1.11569   
     axis -90 -7.62852e-016 -20   XYZ
    dof rx
    limits (-90.0 20.0)
  end
  begin
     id 11 
     name lowerback
     direction 0.00952301 0.997604 -0.0685217   
     length 2.05943   
     axis 0 0 0   XYZ
    dof rx ry rz
    limits (-20.0 45.0)
           (-30.0 30.0)
           (-30.0 30.0)
  end
  begin
     id 12 
     name upperback
     direction 0.00494399 0.999577 -0.0286701   
     length 2.06523   
     axis 0 0 0   XYZ
    dof rx ry rz
    limits (-20.0 45.0)
           (-30.0 30.0)
           (-30.0 30.0)
  end
  begin
     id 13 
     name thorax
     direction 0.000729686 0.999992 0.00388603   
     length 2.06807   
     axis 0 0 0   XYZ
    dof rx ry rz
    limits (-20.0 45.0)
           (-30.0 30.0)
           (-30.0 30.0)
  end
  begin
     id 14 
     name lowerneck
     direction 0.00452882 0.995459 0.0950816   
     length 1.57426   
     axis 0 0 0   XYZ
    dof rx ry rz
    limits (-20.0 45.0)
           (-30.0 30.0)
           (-30.0 30.0)
  end
  begin
     id 15 
     name upperneck
     direction 0.021922 0.997711 -0.0639762   
     length 1.56399   
     axis 0 0 0   XYZ
    dof rx ry rz
    limits (-20.0 45.0)
           (-30.0 30.0)
           (-30.0 30.0)
  end
  begin
     id 16
     name head
     direction 0.008024 0.999444 -0.0323691  
     length 1.6265  
     axis 0 0 0   XYZ
    dof rx ry rz
    limits (-20.0 45.0)
           (-30.0 30.0)
           (-30.0 30.0)
  end
  begin
     id 17 
     name lclavicle
     direction 0.967826 0.247107 -0.0474446  
     length 3.6598  
     axis 0 0 0   XYZ
    dof ry rz
    limits (-20.0 10.0)
           (0.0 20.0)
  end
  begin
     id 18 
     name lhumerus
     direction 1 -4.48971e-011 -2.90544e-027   
     length 4.86513   
     axis 180 -30 -90   XYZ
    dof rx ry rz
    limits (-60.0 90.0)
           (-90.0 90.0)
           (-90.0 90.0)
  end
  begin
     id 19
     name lradius
     direction 1 -4.48958e-011 1.79638e-026   
     length 3.35554   
     axis 180 -30 -90   XYZ
    dof rx
    limits (-10.0 170.0)
  end
  begin
     id 20
     name lwrist
     direction 1 -4.48952e-011 3.34345e-026   
     length 1.67777   
     axis -2.22354e-014 90 90   XYZ
    dof ry
    limits (-180.0 0.0)
 end
  begin
     id 21 
     name lhand
     direction 1 -4.49055e-011 6.6869e-026   
     length 0.661175   
     axis -4.26681e-014 90 90   XYZ
    dof rx rz
    limits (-90.0 90.0)
           (-45.0 45.0)
  end
  begin
     id 22 
     name lfingers
     direction 1 -4.48731e-011 1.33738e-025   
     length 0.533057   
     axis -8.53362e-014 90 90   XYZ
    dof rx
    limits (0.0 90.0)
  end
  begin
     id 23
     name lthumb
     direction 0.707107 -6.35005e-011 0.707107   
     length 0.765366   
     axis -90 45 2.85299e-015   XYZ
    dof rx rz
    limits (-45.0 45.0)
           (-45.0 45.0)
  end
  begin
     id 24 
     name rclavicle
     direction -0.973174 0.211421 -0.0907389   
     length 3.59444  
     axis 0 0 0   XYZ 
    dof ry rz
    limits (-10.0 20.0)
           (-20.0 0.0)
  end
  begin
     id 25 
     name rhumerus
     direction -1 -4.48964e-011 1.56311e-027  
     length 5.02649   
     axis 180 30 90   XYZ
    dof rx ry rz
    limits (-90.0 60.0)
           (-90.0 90.0)
           (-90.0 90.0)
  end
  begin
     id 26 
     name rradius
     direction -1 -4.48948e-011 2.01724e-026   
     length 3.36431   
     axis 180 30 90   XYZ
    dof rx
    limits (-10.0 170.0)
  end
  begin
     id 27 
     name rwrist
     direction -1 -4.49008e-011 3.34345e-026   
     length 1.68216   
     axis -2.22354e-014 -90 -90   XYZ
    dof ry
    limits (-180.0 0.0)
  end
  begin
     id 28
     name rhand
     direction -1 -4.49013e-011 6.6869e-026   
     length 0.730406   
     axis -4.26681e-014 -90 -90   XYZ
    dof rx rz
    limits (-90.0 90.0)
           (-45.0 45.0)
  end
  begin
     id 29
     name rfingers
     direction -1 -4.48867e-011 1.33738e-025   
     length 0.588872   
     axis -8.53362e-014 -90 -90   XYZ
    dof rx
    limits (0.0 90.0)
  end
  begin
     id 30
     name rthumb
     direction -0.707107 -6.34907e-011 0.707107   
     length 0.845506   
     axis -90 -45 -2.85299e-015   XYZ
    dof rx rz
    limits (-45.0 45.0)
           (-45.0 45.0)
  end
:hierarchy
  begin
    root lhipjoint rhipjoint lowerback
    lhipjoint lfemur
    lfemur ltibia
    ltibia lfoot
    lfoot ltoes
    rhipjoint rfemur
    rfemur rtibia
    rtibia rfoot
    rfoot rtoes
    lowerback upperback
    upperback thorax
    thorax lowerneck lclavicle rclavicle
    lowerneck upperneck
    upperneck head
    lclavicle lhumerus
    lhumerus lradius
    lradius lwrist
    lwrist lhand lthumb
    lhand lfingers
    rclavicle rhumerus
    rhumerus rradius
    rradius rwrist
    rwrist rhand rthumb
    rhand rfingers
  end

#!OML:ASF H:\Terrain\Patient Classification 1\Takeo\Monday\TakeoMonday.ASF
:FULLY-SPECIFIED
:DEGREES

128
root 10.345 16.8023 -10.781 -1.64673 -8.60547 -5.3936
lowerback 10.2567 0.905339 7.91845
upperback 2.22183 2.06998 0.961169
thorax -3.178 0.966059 -3.70992
lowerneck -16.329 1.23141 -1.84229
upperneck -5.87418 1.92705 0.144305
head 0.84121 0.992259 0.462886
rclavicle 2.19533e-014 -7.45443e-015
rhumerus -9.13704 18.6841 -82.7701
rradius 69.4892
rwrist -19.9366
rhand -31.8476 23.0379
rfingers 7.12502
rthumb -5.10159 -6.8807
lclavicle 2.19533e-014 -7.45443e-015
lhumerus -51.7118 18.6052 72.9995
lradius 17.8959
lwrist 15.8059
lhand -23.524 21.5852
lfingers 7.12502
lthumb 2.93702 51.5447
rfemur 27.542 3.67743 29.7484
rtibia 1.27222e-014
rfoot -6.66968 -2.35016
rtoes -13.6515
lfemur -34.2071 -6.9721 -10.4371
ltibia 27.7603
lfoot -14.047 12.5858
ltoes -15.4103
129
root 10.354 16.7747 -10.5015 -1.76759 -8.8976 -5.63664
lowerback 10.4526 0.830965 7.97544
upperback 2.09167 2.01152 1.15822
thorax -3.43603 0.922954 -3.53654
lowerneck -15.8746 1.39298 -2.24263
upperneck -6.09512 2.1967 0.444708
head 0.683819 1.14164 0.632338
rclavicle -1.85677e-014 -5.41688e-015
rhumerus -9.42599 19.1705 -82.6348
rradius 70.023
rwrist -20.0046
rhand -31.9325 22.8627
rfingers 7.12502
rthumb -5.18358 -7.05393
lclavicle -1.85677e-014 -5.41688e-015
lhumerus -52.7642 19.9901 71.7483
lradius 17.3356
lwrist 14.8917
lhand -23.489 22.1917
lfingers 7.12502
lthumb 2.97085 52.1508
rfemur 28.6766 4.13099 30.0286
rtibia 6.36111e-014
rfoot -6.32719 -2.40119
rtoes -14.8298
lfemur -34.0396 -7.01592 -10.1608
ltibia 27.4811
lfoot -14.889 12.9839
ltoes -15.4461
130
root 10.3599 16.7473 -10.225 -1.91929 -8.96546 -5.78467
lowerback 10.5571 0.81063 8.02578
upperback 2.14463 1.99852 1.19555
thorax -3.43923 0.917239 -3.52613
lowerneck -16.493 1.35189 -1.7287
upperneck -5.83078 2.06663 -0.162278
head 0.884862 1.05102 0.356462
rclavicle 2.90971e-014 -9.44227e-016
rhumerus -9.44319 19.1743 -82.4786
rradius 70.4416
rwrist -20.2246
rhand -31.4424 23.3144
rfingers 7.12502
rthumb -4.71037 -6.61323
lclavicle 2.90971e-014 -9.44227e-016
lhumerus -53.1292 20.9094 70.6774
lradius 16.6909
lwrist 14.0486
lhand -23.8447 22.6611
lfingers 7.12502
lthumb 2.62733 52.6246
rfemur 29.8279 4.36321 30.2092
rtibia -6.04305e-014
rfoot -5.81863 -2.38443
rtoes -16.9381
lfemur -33.8473 -6.90361 -10.173
ltibia 27.5194
lfoot -15.1469 13.128
ltoes -15.3495
131
root 10.3639 16.7191 -9.94382 -2.04329 -9.0026 -5.47258
lowerback 10.4394 0.870358 7.60544
upperback 2.20406 2.01382 1.10723
thorax -3.32196 0.934652 -3.38106
lowerneck -17.0545 1.13897 -1.72146
upperneck -5.50262 1.79744 -0.348167
head 1.09236 0.90828 0.289446
rclavicle -2.42766e-014 -1.01877e-014
rhumerus -9.47598 19.0848 -82.3484
rradius 70.4773
rwrist -20.3726
rhand -31.2267 23.8449
rfingers 7.12502
rthumb -4.50201 -6.08729
lclavicle -2.42766e-014 -1.01877e-014
lhumerus -53.4587 21.7037 69.6953
lradius 16.2094
lwrist 13.1135
lhand -24.1552 22.4893
lfingers 7.12502
lthumb 2.32743 52.4564
rfemur 30.9032 4.62251 29.8785
rtibia 2.8625e-014
rfoot -5.01415 -2.26791
rtoes -19.6564
lfemur -33.6033 -6.30486 -10.9487
ltibia 27.8206
lfoot -14.9252 12.7421
ltoes -16.4117
132
root 10.3717 16.688 -9.65384 -2.0954 -9.13652 -4.84777
lowerback 10.216 0.941547 6.80853
upperback 2.16026 2.00191 1.00091
thorax -3.27089 0.936425 -3.03913
lowerneck -17.5385 1.11562 -1.34824
upperneck -4.9657 1.71727 -1.04186
head 1.36471 0.836808 0.00745023
rclavicle -3.35325e-014 -2.78299e-015
rhumerus -9.75783 19.2385 -82.2456
rradius 70.4936
rwrist -20.4645
rhand -31.2357 23.9893
rfingers 7.12502
rthumb -4.51074 -5.94269
lclavicle -3.35325e-014 -2.78299e-015
lhumerus -54.0792 22.4658 68.8877
lradius 16.0291
lwrist 12.2423
lhand -24.1805 22.2128
lfingers 7.12502
lthumb 2.30307 52.1801
rfemur 31.1058 5.03881 29.1697
rtibia 1.55839
rfoot -4.85797 -2.17753
rtoes -22.9642
lfemur -33.3829 -5.61603 -12.1152
ltibia 28.455
lfoot -14.2409 11.8735
ltoes -17.5026
133
root 10.3781 16.6613 -9.35961 -2.05217 -9.267 -4.35754
lowerback 9.97699 1.05627 6.195
upperback 2.03601 2.07141 0.846152
thorax -3.27862 0.973336 -2.86047
lowerneck -19.1144 1.23554 1.30112
upperneck -3.2544 1.46715 -4.19846
head 2.30044 0.546367 -1.50156
rclavicle 1.86858e-014 -9.93923e-017
rhumerus -10.3863 19.0993 -82.2888
rradius 70.6485
rwrist -20.4399
rhand -31.0981 23.7031
rfingers 7.12502
rthumb -4.37789 -6.23162
lclavicle 1.86858e-014 -9.93923e-017
lhumerus -54.682 23.2246 67.7648
lradius 15.7514
lwrist 10.9896
lhand -24.0778 22.0961
lfingers 7.12502
lthumb 2.40223 52.0623
rfemur 29.7965 5.45391 28.5738
rtibia 5.94962
rfoot -5.96553 -2.04057
rtoes -24.2007
lfemur -33.3453 -4.77786 -13.2176
ltibia 29.4921
lfoot -12.0809 11.0999
ltoes -17.1752
134
root 10.3844 16.6432 -9.05945 -1.94814 -9.2008 -4.05475
lowerback 9.58619 1.11025 5.84141
upperback 1.87823 2.08124 0.716403
thorax -3.23411 0.979864 -2.78956
lowerneck -16.1214 0.931775 -2.05784
upperneck -5.8537 1.56079 0.041607
head 0.816633 0.80938 0.4453
rclavicle 1.54633e-014 -6.70898e-015
rhumerus -11.2947 18.794 -82.5112
rradius 70.8321
rwrist -20.3227
rhand -31.0464 23.5415
rfingers 7.12502
rthumb -4.32794 -6.39427
lclavicle 1.54633e-014 -6.70898e-015
lhumerus -55.3277 24.1887 66.2535
lradius 15.2455
lwrist 9.30405
lhand -23.5348 21.7817
lfingers 7.12502
lthumb 2.92665 51.7414
rfemur 29.1491 5.66261 28.1723
rtibia 8.83395
rfoot -5.75603 -1.83806
rtoes -23.3417
lfemur -33.4986 -3.94583 -14.1854
ltibia 30.9831
lfoot -8.83016 10.805
ltoes -16.1733
